<mxfile host="app.diagrams.net" modified="2023-05-07T13:56:57.481Z" agent="Mozilla/5.0 (Windows NT 10.0; Win64; x64) AppleWebKit/537.36 (KHTML, like Gecko) Chrome/104.0.0.0 Safari/537.36" etag="a0FJzuRywLKI-rC8Vs2T" version="21.2.9" type="github">
  <diagram name="第 1 页" id="1c0aeeHu2ovhErYx3Asg">
    <mxGraphModel dx="1434" dy="764" grid="1" gridSize="10" guides="1" tooltips="1" connect="1" arrows="1" fold="1" page="1" pageScale="1" pageWidth="2339" pageHeight="3300" math="0" shadow="0">
      <root>
        <mxCell id="0" />
        <mxCell id="1" parent="0" />
        <mxCell id="mC0o5pNHEJG1NL8Zh7zi-57" value="" style="shape=table;startSize=0;container=1;collapsible=0;childLayout=tableLayout;sketch=1;curveFitting=1;jiggle=2;fillColor=#d5e8d4;strokeColor=#82b366;" parent="1" vertex="1">
          <mxGeometry x="20" y="130" width="540" height="410" as="geometry" />
        </mxCell>
        <mxCell id="mC0o5pNHEJG1NL8Zh7zi-58" value="" style="shape=tableRow;horizontal=0;startSize=0;swimlaneHead=0;swimlaneBody=0;strokeColor=inherit;top=0;left=0;bottom=0;right=0;collapsible=0;dropTarget=0;fillColor=none;points=[[0,0.5],[1,0.5]];portConstraint=eastwest;" parent="mC0o5pNHEJG1NL8Zh7zi-57" vertex="1">
          <mxGeometry width="540" height="83" as="geometry" />
        </mxCell>
        <mxCell id="mC0o5pNHEJG1NL8Zh7zi-59" value="malloc(32)" style="shape=partialRectangle;html=1;whiteSpace=wrap;connectable=0;overflow=hidden;top=0;left=0;bottom=0;right=0;pointerEvents=1;fontFamily=Comic Sans MS;fontSize=26;sketch=1;curveFitting=1;jiggle=2;fillColor=#F8B5AE;strokeColor=#b85450;" parent="mC0o5pNHEJG1NL8Zh7zi-58" vertex="1">
          <mxGeometry width="180" height="83" as="geometry">
            <mxRectangle width="180" height="83" as="alternateBounds" />
          </mxGeometry>
        </mxCell>
        <mxCell id="mC0o5pNHEJG1NL8Zh7zi-60" value="malloc(32)" style="shape=partialRectangle;html=1;whiteSpace=wrap;connectable=0;strokeColor=inherit;overflow=hidden;fillColor=none;top=0;left=0;bottom=0;right=0;pointerEvents=1;fontFamily=Comic Sans MS;fontSize=26;" parent="mC0o5pNHEJG1NL8Zh7zi-58" vertex="1">
          <mxGeometry x="180" width="180" height="83" as="geometry">
            <mxRectangle width="180" height="83" as="alternateBounds" />
          </mxGeometry>
        </mxCell>
        <mxCell id="mC0o5pNHEJG1NL8Zh7zi-61" value="malloc(32)" style="shape=partialRectangle;html=1;whiteSpace=wrap;connectable=0;strokeColor=#b85450;overflow=hidden;fillColor=#F8B5AE;top=0;left=0;bottom=0;right=0;pointerEvents=1;fontFamily=Comic Sans MS;fontSize=26;sketch=1;curveFitting=1;jiggle=2;" parent="mC0o5pNHEJG1NL8Zh7zi-58" vertex="1">
          <mxGeometry x="360" width="180" height="83" as="geometry">
            <mxRectangle width="180" height="83" as="alternateBounds" />
          </mxGeometry>
        </mxCell>
        <mxCell id="mC0o5pNHEJG1NL8Zh7zi-62" value="" style="shape=tableRow;horizontal=0;startSize=0;swimlaneHead=0;swimlaneBody=0;strokeColor=inherit;top=0;left=0;bottom=0;right=0;collapsible=0;dropTarget=0;fillColor=none;points=[[0,0.5],[1,0.5]];portConstraint=eastwest;" parent="mC0o5pNHEJG1NL8Zh7zi-57" vertex="1">
          <mxGeometry y="83" width="540" height="137" as="geometry" />
        </mxCell>
        <mxCell id="mC0o5pNHEJG1NL8Zh7zi-63" value="malloc(64)" style="shape=partialRectangle;html=1;whiteSpace=wrap;connectable=0;strokeColor=inherit;overflow=hidden;fillColor=none;top=0;left=0;bottom=0;right=0;pointerEvents=1;fontFamily=Comic Sans MS;fontSize=26;" parent="mC0o5pNHEJG1NL8Zh7zi-62" vertex="1">
          <mxGeometry width="180" height="137" as="geometry">
            <mxRectangle width="180" height="137" as="alternateBounds" />
          </mxGeometry>
        </mxCell>
        <mxCell id="mC0o5pNHEJG1NL8Zh7zi-64" value="malloc(64)" style="shape=partialRectangle;html=1;whiteSpace=wrap;connectable=0;strokeColor=#b85450;overflow=hidden;fillColor=#F8B5AE;top=0;left=0;bottom=0;right=0;pointerEvents=1;fontFamily=Comic Sans MS;fontSize=26;sketch=1;curveFitting=1;jiggle=2;" parent="mC0o5pNHEJG1NL8Zh7zi-62" vertex="1">
          <mxGeometry x="180" width="180" height="137" as="geometry">
            <mxRectangle width="180" height="137" as="alternateBounds" />
          </mxGeometry>
        </mxCell>
        <mxCell id="mC0o5pNHEJG1NL8Zh7zi-65" value="malloc(64)" style="shape=partialRectangle;html=1;whiteSpace=wrap;connectable=0;strokeColor=inherit;overflow=hidden;fillColor=none;top=0;left=0;bottom=0;right=0;pointerEvents=1;fontFamily=Comic Sans MS;fontSize=26;" parent="mC0o5pNHEJG1NL8Zh7zi-62" vertex="1">
          <mxGeometry x="360" width="180" height="137" as="geometry">
            <mxRectangle width="180" height="137" as="alternateBounds" />
          </mxGeometry>
        </mxCell>
        <mxCell id="mC0o5pNHEJG1NL8Zh7zi-66" value="" style="shape=tableRow;horizontal=0;startSize=0;swimlaneHead=0;swimlaneBody=0;strokeColor=inherit;top=0;left=0;bottom=0;right=0;collapsible=0;dropTarget=0;fillColor=none;points=[[0,0.5],[1,0.5]];portConstraint=eastwest;" parent="mC0o5pNHEJG1NL8Zh7zi-57" vertex="1">
          <mxGeometry y="220" width="540" height="190" as="geometry" />
        </mxCell>
        <mxCell id="mC0o5pNHEJG1NL8Zh7zi-67" value="malloc(128)" style="shape=partialRectangle;html=1;whiteSpace=wrap;connectable=0;strokeColor=#b85450;overflow=hidden;fillColor=#F8B5AE;top=0;left=0;bottom=0;right=0;pointerEvents=1;fontFamily=Comic Sans MS;fontSize=26;sketch=1;curveFitting=1;jiggle=2;" parent="mC0o5pNHEJG1NL8Zh7zi-66" vertex="1">
          <mxGeometry width="180" height="190" as="geometry">
            <mxRectangle width="180" height="190" as="alternateBounds" />
          </mxGeometry>
        </mxCell>
        <mxCell id="mC0o5pNHEJG1NL8Zh7zi-68" value="malloc(128)" style="shape=partialRectangle;html=1;whiteSpace=wrap;connectable=0;strokeColor=inherit;overflow=hidden;fillColor=none;top=0;left=0;bottom=0;right=0;pointerEvents=1;fontFamily=Comic Sans MS;fontSize=26;" parent="mC0o5pNHEJG1NL8Zh7zi-66" vertex="1">
          <mxGeometry x="180" width="180" height="190" as="geometry">
            <mxRectangle width="180" height="190" as="alternateBounds" />
          </mxGeometry>
        </mxCell>
        <mxCell id="mC0o5pNHEJG1NL8Zh7zi-69" value="......" style="shape=partialRectangle;html=1;whiteSpace=wrap;connectable=0;strokeColor=inherit;overflow=hidden;fillColor=none;top=0;left=0;bottom=0;right=0;pointerEvents=1;fontFamily=Comic Sans MS;fontSize=26;" parent="mC0o5pNHEJG1NL8Zh7zi-66" vertex="1">
          <mxGeometry x="360" width="180" height="190" as="geometry">
            <mxRectangle width="180" height="190" as="alternateBounds" />
          </mxGeometry>
        </mxCell>
        <mxCell id="mC0o5pNHEJG1NL8Zh7zi-96" value="" style="shape=table;startSize=0;container=1;collapsible=0;childLayout=tableLayout;sketch=1;jiggle=2;curveFitting=1;strokeColor=#82b366;fontFamily=Comic Sans MS;fontSize=26;fontColor=default;fillColor=#d5e8d4;" parent="1" vertex="1">
          <mxGeometry x="920" y="130" width="340" height="410" as="geometry" />
        </mxCell>
        <mxCell id="mC0o5pNHEJG1NL8Zh7zi-97" value="" style="shape=tableRow;horizontal=0;startSize=0;swimlaneHead=0;swimlaneBody=0;strokeColor=inherit;top=0;left=0;bottom=0;right=0;collapsible=0;dropTarget=0;fillColor=none;points=[[0,0.5],[1,0.5]];portConstraint=eastwest;sketch=1;jiggle=2;curveFitting=1;fontFamily=Comic Sans MS;fontSize=26;fontColor=default;" parent="mC0o5pNHEJG1NL8Zh7zi-96" vertex="1">
          <mxGeometry width="340" height="103" as="geometry" />
        </mxCell>
        <mxCell id="mC0o5pNHEJG1NL8Zh7zi-98" value="Py_ssize_t &lt;font color=&quot;#6666ff&quot;&gt;ob_refcnt&lt;/font&gt;" style="shape=partialRectangle;html=1;whiteSpace=wrap;connectable=0;strokeColor=inherit;overflow=hidden;fillColor=none;top=0;left=0;bottom=0;right=0;pointerEvents=1;sketch=1;jiggle=2;curveFitting=1;fontFamily=Comic Sans MS;fontSize=26;fontColor=default;startSize=0;" parent="mC0o5pNHEJG1NL8Zh7zi-97" vertex="1">
          <mxGeometry width="340" height="103" as="geometry">
            <mxRectangle width="340" height="103" as="alternateBounds" />
          </mxGeometry>
        </mxCell>
        <mxCell id="mC0o5pNHEJG1NL8Zh7zi-99" value="" style="shape=tableRow;horizontal=0;startSize=0;swimlaneHead=0;swimlaneBody=0;strokeColor=inherit;top=0;left=0;bottom=0;right=0;collapsible=0;dropTarget=0;fillColor=none;points=[[0,0.5],[1,0.5]];portConstraint=eastwest;sketch=1;jiggle=2;curveFitting=1;fontFamily=Comic Sans MS;fontSize=26;fontColor=default;" parent="mC0o5pNHEJG1NL8Zh7zi-96" vertex="1">
          <mxGeometry y="103" width="340" height="102" as="geometry" />
        </mxCell>
        <mxCell id="mC0o5pNHEJG1NL8Zh7zi-100" value="_typeobject *&lt;font color=&quot;#6666ff&quot;&gt;ob_type&lt;/font&gt;" style="shape=partialRectangle;html=1;whiteSpace=wrap;connectable=0;strokeColor=inherit;overflow=hidden;fillColor=none;top=0;left=0;bottom=0;right=0;pointerEvents=1;sketch=1;jiggle=2;curveFitting=1;fontFamily=Comic Sans MS;fontSize=26;fontColor=default;startSize=0;" parent="mC0o5pNHEJG1NL8Zh7zi-99" vertex="1">
          <mxGeometry width="340" height="102" as="geometry">
            <mxRectangle width="340" height="102" as="alternateBounds" />
          </mxGeometry>
        </mxCell>
        <mxCell id="mC0o5pNHEJG1NL8Zh7zi-101" value="" style="shape=tableRow;horizontal=0;startSize=0;swimlaneHead=0;swimlaneBody=0;strokeColor=inherit;top=0;left=0;bottom=0;right=0;collapsible=0;dropTarget=0;fillColor=none;points=[[0,0.5],[1,0.5]];portConstraint=eastwest;sketch=1;jiggle=2;curveFitting=1;fontFamily=Comic Sans MS;fontSize=26;fontColor=default;" parent="mC0o5pNHEJG1NL8Zh7zi-96" vertex="1">
          <mxGeometry y="205" width="340" height="103" as="geometry" />
        </mxCell>
        <mxCell id="mC0o5pNHEJG1NL8Zh7zi-102" value="" style="shape=partialRectangle;html=1;whiteSpace=wrap;connectable=0;strokeColor=inherit;overflow=hidden;fillColor=none;top=0;left=0;bottom=0;right=0;pointerEvents=1;sketch=1;jiggle=2;curveFitting=1;fontFamily=Comic Sans MS;fontSize=26;fontColor=default;startSize=0;" parent="mC0o5pNHEJG1NL8Zh7zi-101" vertex="1">
          <mxGeometry width="340" height="103" as="geometry">
            <mxRectangle width="340" height="103" as="alternateBounds" />
          </mxGeometry>
        </mxCell>
        <mxCell id="mC0o5pNHEJG1NL8Zh7zi-103" value="" style="shape=tableRow;horizontal=0;startSize=0;swimlaneHead=0;swimlaneBody=0;strokeColor=inherit;top=0;left=0;bottom=0;right=0;collapsible=0;dropTarget=0;fillColor=none;points=[[0,0.5],[1,0.5]];portConstraint=eastwest;sketch=1;jiggle=2;curveFitting=1;fontFamily=Comic Sans MS;fontSize=26;fontColor=default;" parent="mC0o5pNHEJG1NL8Zh7zi-96" vertex="1">
          <mxGeometry y="308" width="340" height="102" as="geometry" />
        </mxCell>
        <mxCell id="mC0o5pNHEJG1NL8Zh7zi-104" value="" style="shape=partialRectangle;html=1;whiteSpace=wrap;connectable=0;strokeColor=inherit;overflow=hidden;fillColor=none;top=0;left=0;bottom=0;right=0;pointerEvents=1;sketch=1;jiggle=2;curveFitting=1;fontFamily=Comic Sans MS;fontSize=26;fontColor=default;startSize=0;" parent="mC0o5pNHEJG1NL8Zh7zi-103" vertex="1">
          <mxGeometry width="340" height="102" as="geometry">
            <mxRectangle width="340" height="102" as="alternateBounds" />
          </mxGeometry>
        </mxCell>
        <mxCell id="CjC7jjfEwAVpboaAzjOh-1" value="" style="shape=curlyBracket;whiteSpace=wrap;html=1;rounded=1;labelPosition=left;verticalLabelPosition=middle;align=right;verticalAlign=middle;sketch=1;jiggle=2;curveFitting=1;strokeColor=#6c8ebf;fontFamily=Comic Sans MS;fontSize=26;startSize=0;fillColor=#dae8fc;" vertex="1" parent="1">
          <mxGeometry x="870" y="130" width="20" height="410" as="geometry" />
        </mxCell>
        <mxCell id="CjC7jjfEwAVpboaAzjOh-3" value="malloc(32)" style="rounded=1;whiteSpace=wrap;html=1;strokeWidth=2;fillWeight=4;hachureGap=8;hachureAngle=45;fillColor=#FF9999;sketch=1;jiggle=2;curveFitting=1;strokeColor=#82b366;fontFamily=Comic Sans MS;fontSize=26;fontColor=default;startSize=0;" vertex="1" parent="1">
          <mxGeometry x="660" y="290" width="190" height="90" as="geometry" />
        </mxCell>
        <mxCell id="CjC7jjfEwAVpboaAzjOh-4" value="" style="html=1;shadow=0;dashed=0;align=center;verticalAlign=middle;shape=mxgraph.arrows2.stylisedArrow;dy=0.6;dx=40;notch=15;feather=0.4;sketch=1;jiggle=2;curveFitting=1;strokeColor=#82b366;fontFamily=Comic Sans MS;fontSize=26;fontColor=default;startSize=0;fillColor=#d5e8d4;" vertex="1" parent="1">
          <mxGeometry x="1270" y="260" width="170" height="50" as="geometry" />
        </mxCell>
        <mxCell id="CjC7jjfEwAVpboaAzjOh-5" value="&lt;p style=&quot;line-height: 160%;&quot;&gt;&lt;font color=&quot;#6666ff&quot;&gt;PyInt_Type&lt;br&gt;PyFloat_Type&lt;br&gt;PyList_Type&lt;br&gt;PyTuple_Type&lt;br&gt;PyDict_Type&lt;br&gt;PyString_Type&lt;br&gt;PyUnicode_Type&lt;/font&gt;&lt;/p&gt;" style="shape=note;whiteSpace=wrap;html=1;backgroundOutline=1;darkOpacity=0.05;sketch=1;jiggle=2;curveFitting=1;strokeColor=#82b366;fontFamily=Comic Sans MS;fontSize=26;fontColor=default;startSize=0;fillColor=#d5e8d4;" vertex="1" parent="1">
          <mxGeometry x="1470" y="120" width="280" height="350" as="geometry" />
        </mxCell>
        <mxCell id="CjC7jjfEwAVpboaAzjOh-6" value="" style="shape=table;startSize=0;container=1;collapsible=0;childLayout=tableLayout;sketch=1;curveFitting=1;jiggle=2;fillColor=#d5e8d4;strokeColor=#82b366;" vertex="1" parent="1">
          <mxGeometry x="20" y="730" width="540" height="410" as="geometry" />
        </mxCell>
        <mxCell id="CjC7jjfEwAVpboaAzjOh-7" value="" style="shape=tableRow;horizontal=0;startSize=0;swimlaneHead=0;swimlaneBody=0;strokeColor=inherit;top=0;left=0;bottom=0;right=0;collapsible=0;dropTarget=0;fillColor=none;points=[[0,0.5],[1,0.5]];portConstraint=eastwest;" vertex="1" parent="CjC7jjfEwAVpboaAzjOh-6">
          <mxGeometry width="540" height="83" as="geometry" />
        </mxCell>
        <mxCell id="CjC7jjfEwAVpboaAzjOh-8" value="PyIntObj" style="shape=partialRectangle;html=1;whiteSpace=wrap;connectable=0;overflow=hidden;top=0;left=0;bottom=0;right=0;pointerEvents=1;fontFamily=Comic Sans MS;fontSize=26;sketch=1;curveFitting=1;jiggle=2;fillColor=#F8B5AE;strokeColor=#b85450;" vertex="1" parent="CjC7jjfEwAVpboaAzjOh-7">
          <mxGeometry width="180" height="83" as="geometry">
            <mxRectangle width="180" height="83" as="alternateBounds" />
          </mxGeometry>
        </mxCell>
        <mxCell id="CjC7jjfEwAVpboaAzjOh-9" value="PyFloatObj" style="shape=partialRectangle;html=1;whiteSpace=wrap;connectable=0;strokeColor=inherit;overflow=hidden;fillColor=none;top=0;left=0;bottom=0;right=0;pointerEvents=1;fontFamily=Comic Sans MS;fontSize=26;" vertex="1" parent="CjC7jjfEwAVpboaAzjOh-7">
          <mxGeometry x="180" width="180" height="83" as="geometry">
            <mxRectangle width="180" height="83" as="alternateBounds" />
          </mxGeometry>
        </mxCell>
        <mxCell id="CjC7jjfEwAVpboaAzjOh-10" value="PyIntObj" style="shape=partialRectangle;html=1;whiteSpace=wrap;connectable=0;strokeColor=#b85450;overflow=hidden;fillColor=#F8B5AE;top=0;left=0;bottom=0;right=0;pointerEvents=1;fontFamily=Comic Sans MS;fontSize=26;sketch=1;curveFitting=1;jiggle=2;" vertex="1" parent="CjC7jjfEwAVpboaAzjOh-7">
          <mxGeometry x="360" width="180" height="83" as="geometry">
            <mxRectangle width="180" height="83" as="alternateBounds" />
          </mxGeometry>
        </mxCell>
        <mxCell id="CjC7jjfEwAVpboaAzjOh-11" value="" style="shape=tableRow;horizontal=0;startSize=0;swimlaneHead=0;swimlaneBody=0;strokeColor=inherit;top=0;left=0;bottom=0;right=0;collapsible=0;dropTarget=0;fillColor=none;points=[[0,0.5],[1,0.5]];portConstraint=eastwest;" vertex="1" parent="CjC7jjfEwAVpboaAzjOh-6">
          <mxGeometry y="83" width="540" height="137" as="geometry" />
        </mxCell>
        <mxCell id="CjC7jjfEwAVpboaAzjOh-12" value="PyTupleObj" style="shape=partialRectangle;html=1;whiteSpace=wrap;connectable=0;strokeColor=inherit;overflow=hidden;fillColor=none;top=0;left=0;bottom=0;right=0;pointerEvents=1;fontFamily=Comic Sans MS;fontSize=26;" vertex="1" parent="CjC7jjfEwAVpboaAzjOh-11">
          <mxGeometry width="180" height="137" as="geometry">
            <mxRectangle width="180" height="137" as="alternateBounds" />
          </mxGeometry>
        </mxCell>
        <mxCell id="CjC7jjfEwAVpboaAzjOh-13" value="PyStringObj" style="shape=partialRectangle;html=1;whiteSpace=wrap;connectable=0;strokeColor=#b85450;overflow=hidden;fillColor=#F8B5AE;top=0;left=0;bottom=0;right=0;pointerEvents=1;fontFamily=Comic Sans MS;fontSize=26;sketch=1;curveFitting=1;jiggle=2;" vertex="1" parent="CjC7jjfEwAVpboaAzjOh-11">
          <mxGeometry x="180" width="180" height="137" as="geometry">
            <mxRectangle width="180" height="137" as="alternateBounds" />
          </mxGeometry>
        </mxCell>
        <mxCell id="CjC7jjfEwAVpboaAzjOh-14" value="PyListObj" style="shape=partialRectangle;html=1;whiteSpace=wrap;connectable=0;strokeColor=inherit;overflow=hidden;fillColor=none;top=0;left=0;bottom=0;right=0;pointerEvents=1;fontFamily=Comic Sans MS;fontSize=26;" vertex="1" parent="CjC7jjfEwAVpboaAzjOh-11">
          <mxGeometry x="360" width="180" height="137" as="geometry">
            <mxRectangle width="180" height="137" as="alternateBounds" />
          </mxGeometry>
        </mxCell>
        <mxCell id="CjC7jjfEwAVpboaAzjOh-15" value="" style="shape=tableRow;horizontal=0;startSize=0;swimlaneHead=0;swimlaneBody=0;strokeColor=inherit;top=0;left=0;bottom=0;right=0;collapsible=0;dropTarget=0;fillColor=none;points=[[0,0.5],[1,0.5]];portConstraint=eastwest;" vertex="1" parent="CjC7jjfEwAVpboaAzjOh-6">
          <mxGeometry y="220" width="540" height="190" as="geometry" />
        </mxCell>
        <mxCell id="CjC7jjfEwAVpboaAzjOh-16" value="PyDictObj" style="shape=partialRectangle;html=1;whiteSpace=wrap;connectable=0;strokeColor=#b85450;overflow=hidden;fillColor=#F8B5AE;top=0;left=0;bottom=0;right=0;pointerEvents=1;fontFamily=Comic Sans MS;fontSize=26;sketch=1;curveFitting=1;jiggle=2;" vertex="1" parent="CjC7jjfEwAVpboaAzjOh-15">
          <mxGeometry width="180" height="190" as="geometry">
            <mxRectangle width="180" height="190" as="alternateBounds" />
          </mxGeometry>
        </mxCell>
        <mxCell id="CjC7jjfEwAVpboaAzjOh-17" value="PyUnicodeObj" style="shape=partialRectangle;html=1;whiteSpace=wrap;connectable=0;strokeColor=inherit;overflow=hidden;fillColor=none;top=0;left=0;bottom=0;right=0;pointerEvents=1;fontFamily=Comic Sans MS;fontSize=26;" vertex="1" parent="CjC7jjfEwAVpboaAzjOh-15">
          <mxGeometry x="180" width="180" height="190" as="geometry">
            <mxRectangle width="180" height="190" as="alternateBounds" />
          </mxGeometry>
        </mxCell>
        <mxCell id="CjC7jjfEwAVpboaAzjOh-18" value="......" style="shape=partialRectangle;html=1;whiteSpace=wrap;connectable=0;strokeColor=inherit;overflow=hidden;fillColor=none;top=0;left=0;bottom=0;right=0;pointerEvents=1;fontFamily=Comic Sans MS;fontSize=26;" vertex="1" parent="CjC7jjfEwAVpboaAzjOh-15">
          <mxGeometry x="360" width="180" height="190" as="geometry">
            <mxRectangle width="180" height="190" as="alternateBounds" />
          </mxGeometry>
        </mxCell>
        <mxCell id="CjC7jjfEwAVpboaAzjOh-19" value="" style="shape=singleArrow;direction=south;whiteSpace=wrap;html=1;sketch=1;jiggle=2;curveFitting=1;strokeColor=#82b366;fontFamily=Comic Sans MS;fontSize=26;fontColor=default;startSize=0;fillColor=#d5e8d4;" vertex="1" parent="1">
          <mxGeometry x="240" y="580" width="60" height="100" as="geometry" />
        </mxCell>
        <mxCell id="CjC7jjfEwAVpboaAzjOh-20" value="" style="html=1;shadow=0;dashed=0;align=center;verticalAlign=middle;shape=mxgraph.arrows2.jumpInArrow;dy=15;dx=38;arrowHead=55;sketch=1;jiggle=2;curveFitting=1;strokeColor=#82b366;fontFamily=Comic Sans MS;fontSize=26;fontColor=default;startSize=0;fillColor=#d5e8d4;rotation=67;" vertex="1" parent="1">
          <mxGeometry x="585.46" y="156.85" width="130" height="110" as="geometry" />
        </mxCell>
        <mxCell id="CjC7jjfEwAVpboaAzjOh-21" value="" style="shape=table;startSize=0;container=1;collapsible=0;childLayout=tableLayout;sketch=1;jiggle=2;curveFitting=1;strokeColor=#82b366;fontFamily=Comic Sans MS;fontSize=26;fontColor=default;fillColor=#d5e8d4;" vertex="1" parent="1">
          <mxGeometry x="920" y="720" width="340" height="410" as="geometry" />
        </mxCell>
        <mxCell id="CjC7jjfEwAVpboaAzjOh-22" value="" style="shape=tableRow;horizontal=0;startSize=0;swimlaneHead=0;swimlaneBody=0;strokeColor=inherit;top=0;left=0;bottom=0;right=0;collapsible=0;dropTarget=0;fillColor=none;points=[[0,0.5],[1,0.5]];portConstraint=eastwest;sketch=1;jiggle=2;curveFitting=1;fontFamily=Comic Sans MS;fontSize=26;fontColor=default;" vertex="1" parent="CjC7jjfEwAVpboaAzjOh-21">
          <mxGeometry width="340" height="103" as="geometry" />
        </mxCell>
        <mxCell id="CjC7jjfEwAVpboaAzjOh-23" value="" style="shape=partialRectangle;html=1;whiteSpace=wrap;connectable=0;strokeColor=inherit;overflow=hidden;fillColor=none;top=0;left=0;bottom=0;right=0;pointerEvents=1;sketch=1;jiggle=2;curveFitting=1;fontFamily=Comic Sans MS;fontSize=26;fontColor=default;startSize=0;" vertex="1" parent="CjC7jjfEwAVpboaAzjOh-22">
          <mxGeometry width="340" height="103" as="geometry">
            <mxRectangle width="340" height="103" as="alternateBounds" />
          </mxGeometry>
        </mxCell>
        <mxCell id="CjC7jjfEwAVpboaAzjOh-24" value="" style="shape=tableRow;horizontal=0;startSize=0;swimlaneHead=0;swimlaneBody=0;strokeColor=inherit;top=0;left=0;bottom=0;right=0;collapsible=0;dropTarget=0;fillColor=none;points=[[0,0.5],[1,0.5]];portConstraint=eastwest;sketch=1;jiggle=2;curveFitting=1;fontFamily=Comic Sans MS;fontSize=26;fontColor=default;" vertex="1" parent="CjC7jjfEwAVpboaAzjOh-21">
          <mxGeometry y="103" width="340" height="102" as="geometry" />
        </mxCell>
        <mxCell id="CjC7jjfEwAVpboaAzjOh-25" value="offset : 8,&amp;nbsp;&amp;nbsp;&lt;font color=&quot;#6666ff&quot;&gt;ob_type&lt;/font&gt;" style="shape=partialRectangle;html=1;whiteSpace=wrap;connectable=0;strokeColor=#b85450;overflow=hidden;fillColor=#f8cecc;top=0;left=0;bottom=0;right=0;pointerEvents=1;sketch=1;jiggle=2;curveFitting=1;fontFamily=Comic Sans MS;fontSize=26;startSize=0;" vertex="1" parent="CjC7jjfEwAVpboaAzjOh-24">
          <mxGeometry width="340" height="102" as="geometry">
            <mxRectangle width="340" height="102" as="alternateBounds" />
          </mxGeometry>
        </mxCell>
        <mxCell id="CjC7jjfEwAVpboaAzjOh-26" value="" style="shape=tableRow;horizontal=0;startSize=0;swimlaneHead=0;swimlaneBody=0;strokeColor=inherit;top=0;left=0;bottom=0;right=0;collapsible=0;dropTarget=0;fillColor=none;points=[[0,0.5],[1,0.5]];portConstraint=eastwest;sketch=1;jiggle=2;curveFitting=1;fontFamily=Comic Sans MS;fontSize=26;fontColor=default;" vertex="1" parent="CjC7jjfEwAVpboaAzjOh-21">
          <mxGeometry y="205" width="340" height="103" as="geometry" />
        </mxCell>
        <mxCell id="CjC7jjfEwAVpboaAzjOh-27" value="" style="shape=partialRectangle;html=1;whiteSpace=wrap;connectable=0;strokeColor=inherit;overflow=hidden;fillColor=none;top=0;left=0;bottom=0;right=0;pointerEvents=1;sketch=1;jiggle=2;curveFitting=1;fontFamily=Comic Sans MS;fontSize=26;fontColor=default;startSize=0;" vertex="1" parent="CjC7jjfEwAVpboaAzjOh-26">
          <mxGeometry width="340" height="103" as="geometry">
            <mxRectangle width="340" height="103" as="alternateBounds" />
          </mxGeometry>
        </mxCell>
        <mxCell id="CjC7jjfEwAVpboaAzjOh-28" value="" style="shape=tableRow;horizontal=0;startSize=0;swimlaneHead=0;swimlaneBody=0;strokeColor=inherit;top=0;left=0;bottom=0;right=0;collapsible=0;dropTarget=0;fillColor=none;points=[[0,0.5],[1,0.5]];portConstraint=eastwest;sketch=1;jiggle=2;curveFitting=1;fontFamily=Comic Sans MS;fontSize=26;fontColor=default;" vertex="1" parent="CjC7jjfEwAVpboaAzjOh-21">
          <mxGeometry y="308" width="340" height="102" as="geometry" />
        </mxCell>
        <mxCell id="CjC7jjfEwAVpboaAzjOh-29" value="" style="shape=partialRectangle;html=1;whiteSpace=wrap;connectable=0;strokeColor=inherit;overflow=hidden;fillColor=none;top=0;left=0;bottom=0;right=0;pointerEvents=1;sketch=1;jiggle=2;curveFitting=1;fontFamily=Comic Sans MS;fontSize=26;fontColor=default;startSize=0;" vertex="1" parent="CjC7jjfEwAVpboaAzjOh-28">
          <mxGeometry width="340" height="102" as="geometry">
            <mxRectangle width="340" height="102" as="alternateBounds" />
          </mxGeometry>
        </mxCell>
        <mxCell id="CjC7jjfEwAVpboaAzjOh-33" value="0" style="resizable=0;html=1;whiteSpace=wrap;align=left;verticalAlign=bottom;sketch=1;jiggle=2;curveFitting=1;strokeColor=#82b366;fontFamily=Comic Sans MS;fontSize=26;fontColor=default;startSize=0;fillColor=#d5e8d4;" connectable="0" vertex="1" parent="1">
          <mxGeometry x="890" y="740" as="geometry" />
        </mxCell>
        <mxCell id="CjC7jjfEwAVpboaAzjOh-34" value="8" style="resizable=0;html=1;whiteSpace=wrap;align=left;verticalAlign=bottom;sketch=1;jiggle=2;curveFitting=1;strokeColor=#82b366;fontFamily=Comic Sans MS;fontSize=26;fontColor=default;startSize=0;fillColor=#d5e8d4;" connectable="0" vertex="1" parent="1">
          <mxGeometry x="889" y="838" as="geometry" />
        </mxCell>
        <mxCell id="CjC7jjfEwAVpboaAzjOh-35" value="16" style="resizable=0;html=1;whiteSpace=wrap;align=left;verticalAlign=bottom;sketch=1;jiggle=2;curveFitting=1;strokeColor=#82b366;fontFamily=Comic Sans MS;fontSize=26;fontColor=default;startSize=0;fillColor=#d5e8d4;" connectable="0" vertex="1" parent="1">
          <mxGeometry x="880" y="937" as="geometry" />
        </mxCell>
        <mxCell id="CjC7jjfEwAVpboaAzjOh-36" value="24" style="resizable=0;html=1;whiteSpace=wrap;align=left;verticalAlign=bottom;sketch=1;jiggle=2;curveFitting=1;strokeColor=#82b366;fontFamily=Comic Sans MS;fontSize=26;fontColor=default;startSize=0;fillColor=#d5e8d4;" connectable="0" vertex="1" parent="1">
          <mxGeometry x="877" y="1042" as="geometry" />
        </mxCell>
        <mxCell id="CjC7jjfEwAVpboaAzjOh-37" value="0" style="resizable=0;html=1;whiteSpace=wrap;align=left;verticalAlign=bottom;sketch=1;jiggle=2;curveFitting=1;strokeColor=#82b366;fontFamily=Comic Sans MS;fontSize=26;fontColor=default;startSize=0;fillColor=#d5e8d4;" connectable="0" vertex="1" parent="1">
          <mxGeometry x="895.5" y="150" as="geometry" />
        </mxCell>
        <mxCell id="CjC7jjfEwAVpboaAzjOh-38" value="8" style="resizable=0;html=1;whiteSpace=wrap;align=left;verticalAlign=bottom;sketch=1;jiggle=2;curveFitting=1;strokeColor=#82b366;fontFamily=Comic Sans MS;fontSize=26;fontColor=default;startSize=0;fillColor=#d5e8d4;" connectable="0" vertex="1" parent="1">
          <mxGeometry x="894.5" y="248" as="geometry" />
        </mxCell>
        <mxCell id="CjC7jjfEwAVpboaAzjOh-39" value="16" style="resizable=0;html=1;whiteSpace=wrap;align=left;verticalAlign=bottom;sketch=1;jiggle=2;curveFitting=1;strokeColor=#82b366;fontFamily=Comic Sans MS;fontSize=26;fontColor=default;startSize=0;fillColor=#d5e8d4;" connectable="0" vertex="1" parent="1">
          <mxGeometry x="885.5" y="347" as="geometry" />
        </mxCell>
        <mxCell id="CjC7jjfEwAVpboaAzjOh-40" value="24" style="resizable=0;html=1;whiteSpace=wrap;align=left;verticalAlign=bottom;sketch=1;jiggle=2;curveFitting=1;strokeColor=#82b366;fontFamily=Comic Sans MS;fontSize=26;fontColor=default;startSize=0;fillColor=#d5e8d4;" connectable="0" vertex="1" parent="1">
          <mxGeometry x="882.5" y="452" as="geometry" />
        </mxCell>
        <mxCell id="CjC7jjfEwAVpboaAzjOh-41" value="32" style="resizable=0;html=1;whiteSpace=wrap;align=left;verticalAlign=bottom;sketch=1;jiggle=2;curveFitting=1;strokeColor=#82b366;fontFamily=Comic Sans MS;fontSize=26;fontColor=default;startSize=0;fillColor=#d5e8d4;direction=south;" connectable="0" vertex="1" parent="1">
          <mxGeometry x="880" y="550" as="geometry" />
        </mxCell>
        <mxCell id="CjC7jjfEwAVpboaAzjOh-42" value="32" style="resizable=0;html=1;whiteSpace=wrap;align=left;verticalAlign=bottom;sketch=1;jiggle=2;curveFitting=1;strokeColor=#82b366;fontFamily=Comic Sans MS;fontSize=26;fontColor=default;startSize=0;fillColor=#d5e8d4;direction=west;" connectable="0" vertex="1" parent="1">
          <mxGeometry x="877" y="1140" as="geometry" />
        </mxCell>
      </root>
    </mxGraphModel>
  </diagram>
</mxfile>
